<svg xmlns="http://www.w3.org/2000/svg" version="1.1" width="10" height="10" viewBox="-5.0 -10.0 110.0 135.0"><path style="fill:#fdc53a" d="m57.195 12.945 7.1484 14.488v-0.003906c1.168 2.3711 3.4297 4.0117 6.043 4.3906l15.988 2.3242c3.0195 0.4375 5.5312 2.5547 6.4766 5.4609 0.94141 2.9023 0.15625 6.0938-2.0312 8.2227l-11.57 11.277h0.003906c-1.8945 1.8438-2.7539 4.5-2.3086 7.1016l2.7305 15.922v0.003906c0.51562 3.0078-0.72266 6.0508-3.1914 7.8477-2.4727 1.793-5.7461 2.0312-8.4492 0.60938l-14.301-7.5195c-2.3398-1.2266-5.1289-1.2266-7.4688 0l-14.301 7.5195c-2.7031 1.4219-5.9766 1.1836-8.4492-0.60938-2.4688-1.7969-3.707-4.8398-3.1914-7.8477l2.7305-15.922v-0.003907c0.44922-2.6016-0.41406-5.2578-2.3047-7.1016l-11.57-11.277c-2.1875-2.1289-2.9727-5.3203-2.0312-8.2227 0.94531-2.9062 3.457-5.0234 6.4766-5.4609l15.988-2.3242c2.6133-0.37891 4.875-2.0195 6.043-4.3906l7.1484-14.488v0.003906c1.3516-2.7422 4.1406-4.4727 7.1953-4.4727s5.8438 1.7305 7.1953 4.4727z"/></svg>