<svg xmlns="http://www.w3.org/2000/svg" xmlns:xlink="http://www.w3.org/1999/xlink" version="1.1" x="0px" y="0px" viewBox="0 0 32 40" enable-background="new 0 0 32 32" xml:space="preserve"><g><path style="fill:#bfc2c9;stroke: #bfc2c9; stroke-width: 1" d="M7,19.142V3c0-0.552-0.447-1-1-1S5,2.448,5,3v16.142c-1.721,0.447-3,2-3,3.858s1.279,3.411,3,3.858V29c0,0.552,0.447,1,1,1   s1-0.448,1-1v-2.142c1.721-0.447,3-2,3-3.858S8.721,19.589,7,19.142z M6,25c-1.103,0-2-0.897-2-2s0.897-2,2-2s2,0.897,2,2   S7.103,25,6,25z"/><path style="fill:#bfc2c9;stroke: #bfc2c9; stroke-width: 1" d="M17,5.142V3c0-0.552-0.447-1-1-1s-1,0.448-1,1v2.142c-1.721,0.447-3,2-3,3.858s1.279,3.411,3,3.858V29c0,0.552,0.447,1,1,1   s1-0.448,1-1V12.858c1.721-0.447,3-2,3-3.858S18.721,5.589,17,5.142z M16,11c-1.103,0-2-0.897-2-2s0.897-2,2-2s2,0.897,2,2   S17.103,11,16,11z"/><path style="fill:#bfc2c9;stroke: #bfc2c9; stroke-width: 1" d="M30,23c0-1.858-1.279-3.411-3-3.858V3c0-0.552-0.447-1-1-1s-1,0.448-1,1v16.142c-1.721,0.447-3,2-3,3.858   s1.279,3.411,3,3.858V29c0,0.552,0.447,1,1,1s1-0.448,1-1v-2.142C28.721,26.411,30,24.858,30,23z M26,25c-1.103,0-2-0.897-2-2   s0.897-2,2-2s2,0.897,2,2S27.103,25,26,25z"/></g></svg>