<svg xmlns="http://www.w3.org/2000/svg" version="1.1" viewBox="-5.0 -10.0 110.0 135.0" width="75" height="75"><path style="fill:#bfc2c9;stroke: #bfc2c9; stroke-width: 1" d="m50 8.9297c0.5625 0 1.125 0.011718 1.6875 0.03125 1.5117 0.0625 2.6875 1.3359 2.625 2.8477-0.0625 1.5117-1.3359 2.6875-2.8477 2.625-0.48438-0.019532-0.97656-0.027344-1.4648-0.027344-19.66 0-35.594 15.934-35.594 35.594s15.934 35.594 35.594 35.594 35.594-15.934 35.594-35.594c0-7.7812-2.5-15.18-7.0586-21.281-0.90234-1.2109-0.65625-2.9258 0.55469-3.832 1.2148-0.90625 2.9297-0.65625 3.832 0.55469 5.2617 7.0391 8.1484 15.586 8.1484 24.559 0 22.684-18.387 41.07-41.07 41.07s-41.07-18.387-41.07-41.07 18.387-41.07 41.07-41.07zm27.305 5.0664c0.12891 0.53516 0.19531 1.082 0.19531 1.6289v1.8281c0 3.3672-2.2422 6.3242-5.4883 7.2266l-9.3594 2.6094-0.15234 0.035157v22.676c0 6.9023-5.5977 12.5-12.5 12.5s-12.5-5.5977-12.5-12.5 5.5977-12.5 12.5-12.5c2.8125 0 5.4102 0.92969 7.5 2.5v-22.438c0-3.4609 2.3711-6.4766 5.7383-7.2891l5.707-1.3789c3.7188-0.90234 7.4609 1.3828 8.3594 5.1016zm-27.305 28.504c-4.1406 0-7.5 3.3594-7.5 7.5s3.3594 7.5 7.5 7.5 7.5-3.3594 7.5-7.5-3.3594-7.5-7.5-7.5zm20.121-28.746-5.707 1.3789c-1.125 0.27344-1.9141 1.2773-1.9141 2.4297v4.5781l8.1719-2.2773c1.0039-0.28125 1.7188-1.1484 1.8164-2.1719l0.011719-0.23828v-1.8281c0-0.15234-0.019531-0.30469-0.054688-0.45312-0.25-1.0352-1.293-1.668-2.3242-1.418z"/></svg>