<svg xmlns="http://www.w3.org/2000/svg" version="1.1" viewBox="-5.0 -10.0 110.0 135.0"><path d="m89.422 37.07-38.223-28.672c-0.71094-0.53125-1.6914-0.53125-2.3984 0l-38.223 28.672c-1.6094 1.2109-2.5781 3.1406-2.5781 5.1602v43.328c0 3.5508 2.8906 6.4414 6.4414 6.4414h19.68c3.5508 0 6.4414-2.8906 6.4414-6.4414v-27.84h18.859v27.84c0 3.5508 2.8906 6.4414 6.4414 6.4414h19.68c3.5508 0 6.4414-2.8906 6.4414-6.4414v-43.328c0-2.0195-0.96094-3.9492-2.5781-5.1484zm-1.4219 48.488c0 1.3516-1.1016 2.4414-2.4414 2.4414h-19.68c-1.3516 0-2.4414-1.1016-2.4414-2.4414v-29.84c0-1.1016-0.89844-2-2-2h-22.859c-1.1016 0-2 0.89844-2 2v29.84c0 1.3516-1.1016 2.4414-2.4414 2.4414h-19.695c-1.3516 0-2.4414-1.1016-2.4414-2.4414v-43.328c0-0.76172 0.37109-1.5 0.98047-1.9609l37.02-27.77 37.02 27.77c0.60938 0.46094 0.98047 1.1914 0.98047 1.9492z"/></svg>