<svg xmlns="http://www.w3.org/2000/svg" viewBox="-1.6 -3.2 35.2 43.2" x="0px" y="0px"><g data-name="Layer 2"><path d="M29,28H23.174A13.971,13.971,0,1,0,16,30c.27,0,.533-.025.8-.04A.967.967,0,0,0,17,30H29a1,1,0,0,0,0-2ZM4,16A12,12,0,1,1,16,28,12.013,12.013,0,0,1,4,16Zm19,4a4,4,0,1,0-4-4A4,4,0,0,0,23,20Zm0-6a2,2,0,1,1-2,2A2,2,0,0,1,23,14ZM9,12a4,4,0,1,0,4,4A4,4,0,0,0,9,12Zm0,6a2,2,0,1,1,2-2A2,2,0,0,1,9,18Zm7-5a4,4,0,1,0-4-4A4,4,0,0,0,16,13Zm0-6a2,2,0,1,1-2,2A2,2,0,0,1,16,7Zm4,16a4,4,0,1,0-4,4A4,4,0,0,0,20,23Zm-6,0a2,2,0,1,1,2,2A2,2,0,0,1,14,23Zm2-8a1,1,0,1,1-1,1A1,1,0,0,1,16,15Z"/></g></svg>