<svg xmlns="http://www.w3.org/2000/svg" xmlns:xlink="http://www.w3.org/1999/xlink" version="1.1" x="0px" y="0px" viewBox="0 0 100 125" style="enable-background:new 0 0 100 100;" xml:space="preserve"><g><g><path d="M93.96,17.62H6.04C5.46,17.62,5,18.08,5,18.66v53.65c0,0.57,0.46,1.04,1.04,1.04H19.8l-5.59,7.37    c-0.35,0.46-0.26,1.11,0.2,1.45c0.19,0.14,0.41,0.21,0.63,0.21c0.31,0,0.62-0.14,0.83-0.41l5-6.59l1.03,4.1    c0.14,0.56,0.7,0.89,1.26,0.76c0.56-0.14,0.89-0.7,0.76-1.26l-1.41-5.64h55.01l-1.41,5.64c-0.14,0.56,0.2,1.12,0.76,1.26    c0.56,0.14,1.12-0.2,1.26-0.76l1.03-4.1l5,6.59c0.2,0.27,0.51,0.41,0.83,0.41c0.22,0,0.44-0.07,0.63-0.21    c0.46-0.35,0.55-1,0.2-1.45l-5.59-7.37h13.76c0.57,0,1.04-0.46,1.04-1.04V18.66C95,18.08,94.54,17.62,93.96,17.62z M92.92,71.27    H7.08V19.69h85.85V71.27z M55.39,41.57l13.14-13.14l0,5.86c0,0.57,0.46,1.04,1.04,1.04c0.29,0,0.55-0.12,0.73-0.3    s0.3-0.45,0.3-0.73l0-8.37c0-0.28-0.11-0.54-0.3-0.73c-0.19-0.19-0.46-0.3-0.73-0.3H61.2c-0.57,0-1.04,0.46-1.04,1.04    c0,0.57,0.46,1.04,1.04,1.04h5.86L53.92,40.1c-0.41,0.41-0.41,1.06,0,1.47S54.98,41.97,55.39,41.57z M30.44,66.08h8.37    c0.57,0,1.04-0.46,1.04-1.04c0-0.57-0.46-1.04-1.04-1.04h-5.86l13.14-13.14c0.41-0.41,0.41-1.06,0-1.47s-1.06-0.41-1.47,0    L31.48,62.54l0-5.86c0-0.57-0.46-1.04-1.04-1.04c-0.29,0-0.55,0.12-0.73,0.3s-0.3,0.45-0.3,0.73l0,8.37c0,0.28,0.11,0.54,0.3,0.73    C29.9,65.97,30.16,66.08,30.44,66.08z"/></g></g></svg>