<svg xmlns="http://www.w3.org/2000/svg" width="75" height="75" viewBox="0 0 100 126.25" fill="none" x="0px" y="0px"><path style="fill:#bfc2c9;stroke: #bfc2c9; stroke-width: 3" d="M43.0338 69C41.2239 69 40.3448 71.2125 41.6612 72.4547L49.1269 79.4991C49.8975 80.2263 51.1014 80.2263 51.872 79.4991L59.3377 72.4547C60.6541 71.2125 59.775 69 57.9651 69H43.0338Z" fill="black"/><path fill-rule="evenodd" clip-rule="evenodd" d="M24.5116 13.3269C24.7004 13.5736 24.8796 13.8239 25.0491 14.0774C26.9055 12.9585 28.9785 12.1437 31.2065 11.7078L37.3983 10.4964C45.6403 8.884 54.1165 8.884 62.3584 10.4964L68.5503 11.7078C70.8481 12.1574 72.9809 13.0099 74.8813 14.1833C75.0714 13.8937 75.274 13.6079 75.4891 13.3269C79.2463 8.41887 85.4061 6.82399 89.2474 9.76459C93.0887 12.7052 93.1568 19.0677 89.3996 23.9757C87.8337 26.0213 85.8504 27.4914 83.7915 28.2974C83.8648 28.9742 83.9023 29.6606 83.9023 30.3543V50.8976C83.9023 57.7557 81.3717 64.0663 76.2177 66.9358C73.5038 68.4468 71.0634 70.8867 70.789 73.9807C69.9372 83.5848 65.9849 92.2685 50 92.2685C33.957 92.2685 30.469 81.6926 29.7107 73.9785C29.4068 70.8875 27.0137 68.4264 24.2661 66.9783C18.8598 64.1288 15.8545 57.7896 15.8545 50.8976V30.3543C15.8545 29.6283 15.8956 28.9104 15.9757 28.203C14.0008 27.3792 12.1077 25.9439 10.6011 23.9757C6.84386 19.0677 6.91202 12.7052 10.7533 9.76459C14.5946 6.82399 20.7544 8.41887 24.5116 13.3269ZM82.9268 24.3374C84.0282 23.8082 85.1712 22.9188 86.2234 21.5443C89.2264 17.6216 88.2223 14.0173 86.8159 12.9408C85.4096 11.8642 81.6682 11.8356 78.6653 15.7583C78.4387 16.0543 78.235 16.3484 78.0525 16.6398C80.2603 18.7583 81.9448 21.3967 82.9268 24.3374ZM21.3354 15.7583C21.5246 16.0055 21.6979 16.2514 21.8562 16.4956C19.6001 18.6133 17.8747 21.2674 16.8651 24.233C15.8287 23.6942 14.7632 22.8322 13.7772 21.5443C10.7743 17.6216 11.7784 14.0173 13.1847 12.9408C14.5911 11.8642 18.3325 11.8356 21.3354 15.7583ZM19.8545 30.3543C19.8545 23.1805 24.9341 17.0108 31.9745 15.6334L38.1664 14.422C45.9011 12.9088 53.8557 12.9088 61.5904 14.422L67.7823 15.6334C74.8227 17.0108 79.9023 23.1804 79.9023 30.3543V50.8976C79.9023 56.9937 77.6523 61.5589 74.2719 63.441C71.0834 65.2163 67.2515 68.5891 66.8046 73.6273C66.4083 78.0958 65.3344 81.61 63.1217 84.0222C61.0171 86.3165 57.2653 88.2685 50 88.2685C42.9532 88.2685 39.2935 86.0012 37.2111 83.4731C34.9768 80.7608 34.039 77.1221 33.6915 73.5872C33.2025 68.6125 29.4837 65.2067 26.1311 63.4397C22.41 61.4784 19.8545 56.7793 19.8545 50.8976V30.3543Z" fill="black"/><text x="0" y="116" fill="#000000" font-size="5px" font-weight="bold" font-family="'Helvetica Neue', Helvetica, Arial-Unicode, Arial, Sans-serif">Created by WR Graphic Garage</text><text x="0" y="121" fill="#000000" font-size="5px" font-weight="bold" font-family="'Helvetica Neue', Helvetica, Arial-Unicode, Arial, Sans-serif">from the Noun Project</text></svg>